<svg height="512pt" viewBox="-35 0 512 512" width="512pt" xmlns="http://www.w3.org/2000/svg"><path d="m414.898438 249.644531v30.367188c.011718 1.609375.4375 3.191406 1.234374 4.589843l24.011719 39.902344c.796875 1.398438 1.222657 2.976563 1.234375 4.589844v165.25c-.027344 9.738281-7.914062 17.628906-17.65625 17.65625h-406.066406c-9.738281-.027344-17.6289062-7.917969-17.65625-17.65625v-165.25c.0117188-1.613281.4375-3.191406 1.234375-4.589844l24.011719-39.902344c.796875-1.398437 1.222656-2.980468 1.238281-4.589843v-30.367188c-.015625-1.609375-.441406-3.191406-1.238281-4.589843l-24.011719-39.902344c-.796875-1.398438-1.2226562-2.980469-1.234375-4.589844v-63.824219c0-14.070312 5.585938-27.566406 15.535156-37.515625l83.6875-83.6875c9.949219-9.949218 23.445313-15.535156 37.515625-15.535156h286.984375c9.742188.0273438 17.628906 7.917969 17.65625 17.65625v182.90625c-.011718 1.609375-.4375 3.191406-1.234375 4.589844l-24.011719 39.902344c-.796874 1.398437-1.222656 2.980468-1.234374 4.589843zm0 0" fill="#2c3e50"/><path d="m61.792969 105.929688h35.308593c4.878907 0 8.828126 3.953124 8.828126 8.828124v61.792969c0 4.875-3.949219 8.828125-8.828126 8.828125h-35.308593c-4.875 0-8.828125-3.953125-8.828125-8.828125v-61.792969c0-4.875 3.953125-8.828124 8.828125-8.828124zm0 0" fill="#2c2f38"/><path d="m397.242188 35.308594h-247.171876c-4.875 0-8.828124 3.953125-8.828124 8.828125v61.792969c0 4.875 3.953124 8.828124 8.828124 8.828124h247.171876c4.875 0 8.828124-3.953124 8.828124-8.828124v-61.792969c0-4.875-3.953124-8.828125-8.828124-8.828125zm0 0" fill="#f3d55b"/><path d="m397.242188 26.484375h-247.171876c-9.746093.007813-17.648437 7.90625-17.65625 17.652344v61.792969c.007813 9.746093 7.910157 17.648437 17.65625 17.65625h247.171876c9.746093-.007813 17.644531-7.910157 17.65625-17.65625v-61.792969c-.011719-9.746094-7.910157-17.644531-17.65625-17.652344zm-247.171876 17.652344h35.308594v61.792969h-35.308594zm52.964844 0h35.308594v61.792969h-35.308594zm52.964844 0h35.308594v61.792969h-35.308594zm52.964844 0h35.3125v61.792969h-35.3125zm52.964844 61.792969v-61.792969h35.3125l.011718 61.792969zm0 0" fill="#f29c1f"/><path d="m311.371094 450.207031h-181.363282c-12.242187.289063-23.746093-5.851562-30.320312-16.1875-6.574219-10.335937-7.257812-23.359375-1.800781-34.328125l90.679687-150.878906c6.316406-11.875 18.671875-19.296875 32.125-19.296875 13.449219 0 25.804688 7.421875 32.121094 19.296875l90.679688 150.878906c5.457031 10.96875 4.773437 23.992188-1.800782 34.328125-6.574218 10.335938-18.074218 16.476563-30.320312 16.1875zm0 0" fill="#f0c419"/><g fill="#c03a2b"><path d="m311.371094 459.035156h-181.363282c-15.671874.132813-30.265624-7.96875-38.433593-21.347656-7.867188-12.765625-8.449219-28.726562-1.53125-42.035156l90.957031-151.394532c7.96875-14.621093 23.332031-23.675781 39.984375-23.570312s31.898437 9.359375 39.679687 24.082031l90.394532 150.375c7.152344 13.398438 6.679687 29.585938-1.25 42.542969-8.167969 13.375-22.761719 21.480469-38.4375 21.347656zm-90.679688-220.691406c-10.199218-.195312-19.617187 5.433594-24.277344 14.503906l-90.960937 151.394532c-3.890625 7.730468-3.4375 16.9375 1.1875 24.253906 4.984375 8.101562 13.855469 12.992187 23.367187 12.882812h181.363282c9.511718.109375 18.382812-4.78125 23.367187-12.882812 4.695313-7.503906 5.039063-16.9375.902344-24.761719l-90.394531-150.375c-4.609375-9.316406-14.164063-15.15625-24.554688-15.015625zm0 0"/><path d="m220.691406 379.585938c-4.878906 0-8.828125-3.953126-8.828125-8.828126v-79.449218c0-4.875 3.949219-8.824219 8.828125-8.824219 4.875 0 8.824219 3.949219 8.824219 8.824219v79.449218c0 4.875-3.949219 8.828126-8.824219 8.828126zm0 0"/><path d="m229.515625 406.070312c0 4.875-3.949219 8.828126-8.824219 8.828126-4.878906 0-8.828125-3.953126-8.828125-8.828126s3.949219-8.828124 8.828125-8.828124c4.875 0 8.824219 3.953124 8.824219 8.828124zm0 0"/></g></svg>